<?xml version="1.0"?>
<svg xmlns="http://www.w3.org/2000/svg" viewBox="0 0 64 64" width="512" height="512"><g id="coronavirus-virus-covid19-handsake-hand"><path d="M56.26,37.85,40.71,22.29a1.008,1.008,0,0,0-1.42,0l-5.65,5.66a1,1,0,0,0-.3.71.976.976,0,0,0,.3.7l.87.88-3.4.84-1.13-1.13.71-.71a1.009,1.009,0,0,0,.29-.7,1.033,1.033,0,0,0-.29-.71l-5.66-5.66a1,1,0,0,0-1.41,0L8.77,37.02a1,1,0,0,0-.3.71,1.017,1.017,0,0,0,.3.71l5.65,5.65a1.014,1.014,0,0,0,1.42,0l.7-.71,3.66,3.66-1.41,1.42a2.994,2.994,0,0,0,0,4.24,3,3,0,0,0,1.96.86,2.988,2.988,0,0,0,.87,1.97,2.944,2.944,0,0,0,1.96.86,2.943,2.943,0,0,0,2.83,2.83,2.987,2.987,0,0,0,5.1,1.96l1.42-1.41,1.41,1.41a2.928,2.928,0,0,0,2.07.88h.08a2.944,2.944,0,0,0,2.1-.88,3,3,0,0,0,.86-1.96,2.965,2.965,0,0,0,1.96-.86,3,3,0,0,0,.87-1.97,2.944,2.944,0,0,0,2.82-2.83,2.942,2.942,0,0,0,1.97-.86,3,3,0,0,0,0-4.24l-1.41-1.42,2.83-2.83.7.71a1.014,1.014,0,0,0,1.42,0l5.65-5.66a.976.976,0,0,0,.3-.7A1,1,0,0,0,56.26,37.85ZM15.84,41.26l-.71.71-4.24-4.24L24.32,24.29l4.25,4.25ZM20.2,51.28a.967.967,0,0,1-.29-.7.99.99,0,0,1,.29-.71l2.83-2.83a1,1,0,0,1,1.41,0,1.008,1.008,0,0,1,0,1.42l-2.82,2.82A1.027,1.027,0,0,1,20.2,51.28Zm2.83,2.83a1,1,0,0,1,0-1.41l2.83-2.83a1,1,0,0,1,1.41,0,1,1,0,0,1,0,1.41l-2.83,2.83A1.014,1.014,0,0,1,23.03,54.11Zm2.83,2.83a1,1,0,0,1,0-1.41l2.83-2.83a1,1,0,0,1,1.41,0,1,1,0,0,1,0,1.41l-2.83,2.83A1,1,0,0,1,25.86,56.94Zm7.07,0L30.1,59.77a1.014,1.014,0,0,1-1.41,0,1,1,0,0,1-.3-.71.976.976,0,0,1,.3-.7l2.82-2.83a1.017,1.017,0,0,1,.71-.3,1.005,1.005,0,0,1,.71,1.71Zm12.73-5.66a1.076,1.076,0,0,1-.72.29.984.984,0,0,1-.7-.29l-.7-.7a1.008,1.008,0,0,0-1.42,0,1,1,0,0,0,0,1.41l.71.71a.99.99,0,0,1,.29.71.99.99,0,0,1-1,.99h-.01a1.1,1.1,0,0,1-.7-.29l-.7-.7a1.008,1.008,0,0,0-1.42,0,1,1,0,0,0,0,1.41l.71.71a.967.967,0,0,1,.29.7.99.99,0,0,1-.29.71.973.973,0,0,1-.71.29h-.01a.985.985,0,0,1-.69-.29l-.71-.71a1,1,0,0,0-1.42,1.42l.71.71a1,1,0,0,1,0,1.41,1.046,1.046,0,0,1-.72.29.9.9,0,0,1-.69-.29l-1.42-1.41a3.012,3.012,0,0,0,0-4.25,2.953,2.953,0,0,0-1.96-.83,2.9,2.9,0,0,0-2.83-2.83,2.957,2.957,0,0,0-.86-1.99,2.988,2.988,0,0,0-1.97-.87,3,3,0,0,0-.86-1.96,3.066,3.066,0,0,0-4.24,0l-3.66-3.66L28.57,31.36l.82.83-3.65,3.66a3,3,0,0,0,4.24,4.24l2.24-2.24a1.027,1.027,0,0,1,1.42,0l9.9,9.9,2.12,2.12A1,1,0,0,1,45.66,51.28Zm-1.42-5.65-9.19-9.19a3.056,3.056,0,0,0-4.24,0l-2.24,2.24a1,1,0,0,1-1.42-1.42l4.17-4.16,4.84-1.21L47.07,42.8ZM49.9,42.8,35.76,28.66,40,24.41,54.14,38.56Z"/><path d="M32,22A10,10,0,1,0,22,12,10.011,10.011,0,0,0,32,22Zm0-2a7.945,7.945,0,0,1-4.9-1.689l2.879-2.878A3.915,3.915,0,0,0,31,15.858V17a1,1,0,0,0,2,0V15.858a3.915,3.915,0,0,0,1.019-.425l.809.81a1,1,0,0,0,1.414-1.414l-.809-.81A3.915,3.915,0,0,0,35.858,13H37a1,1,0,0,0,0-2H35.858a3.915,3.915,0,0,0-.425-1.019L38.312,7.1A7.986,7.986,0,0,1,32,20Zm-2-8a2,2,0,0,1,2-2,1.96,1.96,0,0,1,.511.075l-2.436,2.436A1.96,1.96,0,0,1,30,12Zm4,0a2,2,0,0,1-2,2,1.96,1.96,0,0,1-.511-.075l2.436-2.436A1.96,1.96,0,0,1,34,12ZM32,4a7.945,7.945,0,0,1,4.9,1.689L34.019,8.567A3.915,3.915,0,0,0,33,8.142V7a1,1,0,0,0-2,0V8.142a3.915,3.915,0,0,0-1.019.425l-.809-.81a1,1,0,1,0-1.414,1.414l.809.81A3.915,3.915,0,0,0,28.142,11H27a1,1,0,0,0,0,2h1.142a3.915,3.915,0,0,0,.425,1.019L25.688,16.9A7.986,7.986,0,0,1,32,4Z"/></g></svg>
